<mxfile host="app.diagrams.net" modified="2023-04-09T17:29:10.208Z" agent="Mozilla/5.0 (Windows NT 10.0; Win64; x64) AppleWebKit/537.36 (KHTML, like Gecko) Chrome/112.0.0.0 Safari/537.36 Edg/112.0.1722.34" version="21.1.4" etag="PoF-7V2op4A-zBFypC4_" type="github">
  <diagram name="Strona-1" id="aj6lJBt6KVbC7W3XXXBg">
    <mxGraphModel>
      <root>
        <mxCell id="0" />
        <mxCell id="1" parent="0" />
      </root>
    </mxGraphModel>
  </diagram>
</mxfile>
